<mxfile host="www.draw.io" modified="2020-02-07T18:03:49.801Z" agent="Mozilla/5.0 (Windows NT 10.0; Win64; x64; rv:68.0) Gecko/20100101 Firefox/68.0" etag="3308r_VkihR2X5walLC8" version="12.6.6" type="github">
  <diagram id="ghIWpN3uQktKaqtEYrWj" name="Page-1">
    <mxGraphModel dx="1646" dy="1038" grid="1" gridSize="10" guides="1" tooltips="1" connect="1" arrows="1" fold="1" page="1" pageScale="1" pageWidth="1700" pageHeight="1100" math="0" shadow="0">
      <root>
        <mxCell id="0"/>
        <mxCell id="1" parent="0"/>
        <mxCell id="SRzgvXeCvo-pCJ56Sc06-1" value="OrderList" style="swimlane;fontStyle=0;childLayout=stackLayout;horizontal=1;startSize=26;fillColor=none;horizontalStack=0;resizeParent=1;resizeParentMax=0;resizeLast=0;collapsible=1;marginBottom=0;" vertex="1" parent="1">
          <mxGeometry x="110" y="100" width="190" height="130" as="geometry"/>
        </mxCell>
        <mxCell id="SRzgvXeCvo-pCJ56Sc06-2" value="- Order[]: myOrders" style="text;strokeColor=none;fillColor=none;align=left;verticalAlign=top;spacingLeft=4;spacingRight=4;overflow=hidden;rotatable=0;points=[[0,0.5],[1,0.5]];portConstraint=eastwest;" vertex="1" parent="SRzgvXeCvo-pCJ56Sc06-1">
          <mxGeometry y="26" width="190" height="26" as="geometry"/>
        </mxCell>
        <mxCell id="SRzgvXeCvo-pCJ56Sc06-3" value="+ void: addOrder(Order)" style="text;strokeColor=none;fillColor=none;align=left;verticalAlign=top;spacingLeft=4;spacingRight=4;overflow=hidden;rotatable=0;points=[[0,0.5],[1,0.5]];portConstraint=eastwest;" vertex="1" parent="SRzgvXeCvo-pCJ56Sc06-1">
          <mxGeometry y="52" width="190" height="26" as="geometry"/>
        </mxCell>
        <mxCell id="SRzgvXeCvo-pCJ56Sc06-4" value="+ void: removeOrder(Order)" style="text;strokeColor=none;fillColor=none;align=left;verticalAlign=top;spacingLeft=4;spacingRight=4;overflow=hidden;rotatable=0;points=[[0,0.5],[1,0.5]];portConstraint=eastwest;" vertex="1" parent="SRzgvXeCvo-pCJ56Sc06-1">
          <mxGeometry y="78" width="190" height="26" as="geometry"/>
        </mxCell>
        <mxCell id="SRzgvXeCvo-pCJ56Sc06-5" value="+ Order: findOrder(orderId)" style="text;strokeColor=none;fillColor=none;align=left;verticalAlign=top;spacingLeft=4;spacingRight=4;overflow=hidden;rotatable=0;points=[[0,0.5],[1,0.5]];portConstraint=eastwest;" vertex="1" parent="SRzgvXeCvo-pCJ56Sc06-1">
          <mxGeometry y="104" width="190" height="26" as="geometry"/>
        </mxCell>
      </root>
    </mxGraphModel>
  </diagram>
</mxfile>
